# xmcd
#
# Track frame offsets: 
#        150
#        16891
#        30965
#        51233
#        72170
#        96741
#
# Disc length: 1522 seconds
#
# Revision: 0
# Processed by: cddbd v1.5.2PL0 Copyright (c) Steve Scherf et al.
# Submitted via: ExactAudioCopy v0.99pb4
#
DISCID=4805f006
DTITLE=Nathan Wade And The Dark Pioneers - The Chroma Session EP
DYEAR=2008
DGENRE=Alt. Country
TTITLE0=Sweat Through
TTITLE1=Cold, Cold Hands
TTITLE2=Skoal Bandits
TTITLE3=All You Shadows
TTITLE4=Long Black Lilies
TTITLE5=Dead Leaves
EXTD=
EXTT0=
EXTT1=
EXTT2=
EXTT3=
EXTT4=
EXTT5=
PLAYORDER=
